<svg xmlns="http://www.w3.org/2000/svg" version="1.1" xmlns:xlink="http://www.w3.org/1999/xlink" viewBox="0 0 200 200"><rect width="200" height="200" fill="url('#gradient')"></rect><defs><linearGradient id="gradient" gradientTransform="rotate(45 0.5 0.5)"><stop offset="0%" stop-color="#dee90b"></stop><stop offset="100%" stop-color="#c9e342"></stop></linearGradient></defs><g><g fill="#1b3855" transform="matrix(6.395558639833449,0,0,6.395558639833449,3.137780770835249,145.4717976496006)" stroke="#0e5278" stroke-width="0.2"><path d="M8.94 0L5.91-5.29L4.50-3.75L4.50 0L1.07 0L1.07-14.22L4.50-14.22L4.50-7.95L5.69-9.76L8.76-14.22L13.00-14.22L8.19-7.93L13.00 0L8.94 0ZM13.87-14.22L18.37-14.22L21.54-4.33L24.71-14.22L29.22-14.22L29.22 0L25.78 0L25.78-3.32L26.11-10.12L22.68 0L20.41 0L16.96-10.13L17.29-3.32L17.29 0L13.87 0L13.87-14.22Z"></path></g></g></svg>